<svg width="22" height="22" viewBox="0 0 22 22" fill="none" xmlns="http://www.w3.org/2000/svg">
<path d="M11.2342 1.76762L13.275 7.22553C13.521 7.88326 14.1362 8.33029 14.8378 8.36094L20.6592 8.61532C20.8902 8.62541 20.9849 8.91677 20.8039 9.06073L16.2438 12.6883C15.6943 13.1254 15.4592 13.8487 15.6469 14.5254L17.2039 20.1405C17.2657 20.3634 17.0178 20.5434 16.825 20.4158L11.9658 17.1998C11.3803 16.8123 10.6197 16.8123 10.0342 17.1998L5.17501 20.4158C4.98218 20.5434 4.73433 20.3633 4.79612 20.1405L6.35312 14.5254C6.54075 13.8487 6.30574 13.1254 5.75619 12.6883L1.19607 9.06073C1.01511 8.91677 1.10978 8.62541 1.34079 8.61532L7.16223 8.36094C7.86377 8.33029 8.47905 7.88327 8.72499 7.22553L10.7658 1.76762C10.8468 1.55104 11.1532 1.55103 11.2342 1.76762Z" stroke="#FFF59D" stroke-width="1.5"/>
</svg>
